<svg data-v-423bf9ae="" xmlns="http://www.w3.org/2000/svg" viewBox="0 0 267 107" class="iconLeftSlogan"><!----><!----><!----><g data-v-423bf9ae="" id="1c463a9b-952f-46a7-8867-641ef0868fbb" fill="#FFFFFF" transform="matrix(5.730659401617148,0,0,5.730659401617148,101.49229554294322,-30.25788236604157)"><path d="M0.77 15.07L0.77 15.07Q0.66 14.96 0.61 14.81Q0.56 14.66 0.38 14.56L0.38 14.56Q0.36 14.36 0.31 14.09Q0.26 13.82 0.21 13.54Q0.16 13.26 0.14 12.98Q0.12 12.70 0.16 12.47L0.16 12.47Q0.19 12.35 0.25 12.24Q0.31 12.13 0.38 12.02Q0.44 11.92 0.47 11.81Q0.51 11.70 0.48 11.59L0.48 11.59Q0.56 11.58 0.58 11.50Q0.60 11.43 0.71 11.46L0.71 11.46Q0.81 11.16 0.92 10.90Q1.03 10.64 1.15 10.39Q1.27 10.14 1.40 9.89Q1.53 9.64 1.64 9.32L1.64 9.32Q1.41 9.11 1.31 8.85Q1.20 8.60 1.15 8.34Q1.09 8.08 1.07 7.81Q1.04 7.55 0.96 7.27L0.96 7.27Q1.12 7.03 1.35 6.87Q1.59 6.71 1.87 6.61Q2.15 6.51 2.47 6.45Q2.80 6.38 3.17 6.30L3.17 6.30Q3.83 6.10 4.35 5.98Q4.87 5.87 5.36 5.79Q5.85 5.71 6.38 5.65Q6.92 5.59 7.62 5.47L7.62 5.47Q7.63 5.51 7.66 5.51Q7.70 5.51 7.75 5.51L7.75 5.51Q7.79 5.61 7.90 5.61L7.90 5.61Q7.90 5.56 7.90 5.53Q7.89 5.50 7.89 5.47L7.89 5.47Q7.92 5.47 7.96 5.48Q8.01 5.50 8.05 5.51Q8.08 5.52 8.11 5.50Q8.13 5.48 8.12 5.41L8.12 5.41Q8.29 5.70 8.54 5.89Q8.80 6.07 9.12 6.21L9.12 6.21Q9.13 6.33 9.13 6.38Q9.12 6.44 9.11 6.49Q9.09 6.54 9.09 6.60Q9.09 6.66 9.12 6.77L9.12 6.77Q8.90 7.14 8.62 7.34Q8.34 7.55 8.03 7.66Q7.71 7.77 7.36 7.82Q7.01 7.88 6.65 7.94Q6.29 8.00 5.92 8.11Q5.55 8.22 5.20 8.44L5.20 8.44Q5.09 8.39 5.00 8.40Q4.91 8.41 4.81 8.44Q4.72 8.46 4.60 8.49Q4.48 8.52 4.32 8.49L4.32 8.49Q4.21 8.59 4.07 8.63Q3.92 8.67 3.77 8.71L3.77 8.71Q3.84 8.86 3.83 9.01Q3.83 9.16 3.87 9.27L3.87 9.27Q4.44 9.32 5.14 9.26Q5.84 9.20 6.51 9.17L6.51 9.17Q6.52 9.24 6.49 9.27Q6.47 9.30 6.47 9.37L6.47 9.37Q6.59 9.45 6.70 9.57Q6.81 9.69 6.92 9.81Q7.04 9.93 7.16 10.00Q7.29 10.08 7.45 10.06L7.45 10.06Q7.52 10.20 7.55 10.35Q7.57 10.50 7.51 10.66L7.51 10.66Q7.23 10.84 6.97 11.03Q6.71 11.21 6.43 11.36Q6.15 11.51 5.82 11.61Q5.50 11.70 5.11 11.69L5.11 11.69Q5.04 11.69 5.00 11.69Q4.95 11.69 4.88 11.63L4.88 11.63Q4.74 11.70 4.52 11.68Q4.29 11.66 4.14 11.73L4.14 11.73Q3.95 11.66 3.70 11.66Q3.45 11.66 3.25 11.59L3.25 11.59Q3.01 11.95 2.79 12.34Q2.57 12.73 2.41 13.17L2.41 13.17Q2.97 13.25 3.34 13.23Q3.71 13.22 4.03 13.18Q4.36 13.14 4.71 13.10Q5.06 13.06 5.56 13.07L5.56 13.07Q5.91 12.91 6.35 12.84Q6.79 12.78 7.18 12.66L7.18 12.66Q7.31 12.70 7.41 12.82Q7.51 12.93 7.59 13.05Q7.68 13.17 7.78 13.25Q7.88 13.33 8.03 13.30L8.03 13.30Q8.09 13.37 8.11 13.47Q8.13 13.56 8.16 13.64Q8.18 13.73 8.22 13.77Q8.26 13.82 8.37 13.81L8.37 13.81Q8.11 14.34 7.79 14.63Q7.46 14.92 7.06 15.07Q6.66 15.23 6.16 15.31Q5.66 15.38 5.04 15.49L5.04 15.49Q4.89 15.52 4.79 15.48Q4.69 15.45 4.58 15.45L4.58 15.45Q4.20 15.52 3.67 15.59Q3.14 15.65 2.61 15.64Q2.08 15.63 1.59 15.50Q1.09 15.38 0.77 15.07ZM9.39 11.68L9.39 11.68Q9.41 11.62 9.45 11.63Q9.50 11.63 9.54 11.62L9.54 11.62Q9.43 11.51 9.41 11.33Q9.38 11.14 9.27 11.02L9.27 11.02Q9.30 10.95 9.32 10.88Q9.34 10.81 9.43 10.83L9.43 10.83Q9.39 10.53 9.45 10.27Q9.50 10.01 9.62 9.78Q9.73 9.54 9.89 9.32Q10.05 9.09 10.20 8.86L10.20 8.86Q10.32 8.83 10.35 8.88Q10.38 8.93 10.45 8.86L10.45 8.86Q10.66 8.71 10.75 8.52Q10.83 8.34 10.83 8.12L10.83 8.12Q10.95 7.77 11.11 7.42Q11.27 7.07 11.47 6.77Q11.68 6.47 11.91 6.24Q12.14 6.02 12.41 5.89L12.41 5.89Q12.61 5.73 12.90 5.59Q13.19 5.46 13.53 5.38Q13.86 5.30 14.22 5.30Q14.57 5.29 14.88 5.37L14.88 5.37Q14.94 5.40 14.96 5.34Q14.97 5.28 15.03 5.28L15.03 5.28Q15.71 5.36 16.25 5.55Q16.79 5.74 17.17 6.08L17.17 6.08Q17.43 6.49 17.66 6.97Q17.90 7.44 18.03 7.95Q18.16 8.46 18.14 9.01Q18.13 9.56 17.91 10.10L17.91 10.10Q17.43 10.71 16.75 11.07Q16.06 11.43 15.28 11.67Q14.49 11.91 13.65 12.06Q12.81 12.21 12.02 12.39L12.02 12.39Q12.03 12.76 12.02 13.17Q12.00 13.59 11.93 14.01Q11.85 14.42 11.71 14.82Q11.57 15.22 11.32 15.56L11.32 15.56Q11.05 15.54 10.75 15.61Q10.46 15.68 10.23 15.75L10.23 15.75Q10.12 15.68 10.01 15.62Q9.91 15.56 9.76 15.54L9.76 15.54Q9.80 15.38 9.69 15.20Q9.57 15.03 9.45 14.85Q9.34 14.68 9.30 14.51Q9.27 14.34 9.46 14.21L9.46 14.21Q9.35 14.11 9.35 13.90L9.35 13.90Q9.41 13.96 9.49 13.96L9.49 13.96Q9.46 13.71 9.55 13.37Q9.64 13.03 9.70 12.69Q9.76 12.36 9.72 12.08Q9.68 11.80 9.39 11.68ZM12.95 8.48L12.95 8.48Q12.89 8.63 12.86 8.74Q12.82 8.86 12.78 8.96Q12.74 9.05 12.69 9.15Q12.65 9.24 12.59 9.37L12.59 9.37Q12.62 9.45 12.70 9.49Q12.78 9.53 12.81 9.61L12.81 9.61Q13.00 9.52 13.19 9.47Q13.38 9.42 13.58 9.39Q13.77 9.37 13.96 9.32Q14.15 9.28 14.36 9.19L14.36 9.19Q14.56 9.09 14.79 9.03Q15.01 8.97 15.23 8.90Q15.45 8.83 15.65 8.74Q15.86 8.65 16.01 8.50L16.01 8.50Q15.82 8.33 15.44 8.19Q15.05 8.05 14.61 8.02Q14.16 7.98 13.72 8.08Q13.28 8.18 12.95 8.48ZM18.01 13.03L18.01 13.03Q18.02 12.97 18.03 12.95Q18.03 12.92 17.98 12.88L17.98 12.88Q17.95 12.78 18.02 12.76Q18.09 12.73 18.16 12.70L18.16 12.70Q18.22 11.88 18.44 11.20Q18.65 10.53 18.90 9.88Q19.15 9.24 19.41 8.59Q19.66 7.94 19.82 7.18L19.82 7.18Q20.00 7 20.12 6.75Q20.23 6.51 20.35 6.25Q20.47 6.00 20.62 5.77Q20.78 5.54 21.05 5.39L21.05 5.39Q21.18 5.40 21.28 5.43Q21.38 5.47 21.48 5.51Q21.57 5.55 21.68 5.58Q21.79 5.61 21.92 5.61L21.92 5.61Q21.97 5.67 22.01 5.76Q22.05 5.85 22.12 5.92L22.12 5.92L22.37 5.88Q22.54 6.03 22.68 6.25Q22.82 6.48 22.87 6.72Q22.93 6.96 22.86 7.18Q22.79 7.41 22.54 7.53L22.54 7.53Q22.56 7.62 22.54 7.66Q22.53 7.70 22.51 7.73Q22.49 7.77 22.49 7.80Q22.49 7.83 22.54 7.89L22.54 7.89Q22.39 8.01 22.27 8.20Q22.15 8.38 22.07 8.59Q21.98 8.79 21.94 9.00Q21.89 9.20 21.88 9.38L21.88 9.38Q22.27 8.97 22.80 8.61Q23.34 8.26 23.73 7.94L23.73 7.94Q24.05 7.72 24.29 7.53Q24.53 7.33 24.77 7.16Q25.02 6.99 25.29 6.83Q25.55 6.67 25.83 6.48L25.83 6.48Q25.96 6.43 26.04 6.45Q26.11 6.48 26.18 6.52L26.18 6.52Q26.20 6.43 26.14 6.41Q26.09 6.38 26.10 6.28L26.10 6.28Q26.33 6.21 26.52 6.11Q26.70 6.02 26.91 5.93L26.91 5.93Q27.04 6.08 27.18 6.25Q27.32 6.43 27.55 6.44L27.55 6.44Q27.63 6.62 27.75 6.71Q27.86 6.79 27.98 6.88Q28.10 6.96 28.18 7.08Q28.26 7.19 28.27 7.44L28.27 7.44Q28.22 7.55 28.14 7.68Q28.07 7.81 28.01 8.00L28.01 8.00Q27.69 8.30 27.35 8.52Q27.02 8.75 26.67 8.96Q26.32 9.16 25.96 9.38Q25.59 9.60 25.22 9.88L25.22 9.88Q25.14 10.01 25.02 10.10Q24.90 10.20 24.77 10.29Q24.64 10.38 24.52 10.47Q24.40 10.57 24.34 10.71L24.34 10.71Q24.28 10.71 24.24 10.71Q24.20 10.72 24.14 10.73L24.14 10.73Q24.09 10.84 23.99 10.91Q23.88 10.98 23.84 11.09L23.84 11.09Q24.09 11.62 24.49 11.89Q24.88 12.17 25.38 12.29Q25.87 12.41 26.44 12.43Q27.02 12.44 27.63 12.44L27.63 12.44Q27.70 12.43 27.69 12.37Q27.69 12.30 27.77 12.32L27.77 12.32Q27.97 12.39 28.11 12.48Q28.25 12.58 28.37 12.69Q28.49 12.80 28.61 12.91Q28.72 13.03 28.88 13.15L28.88 13.15Q28.85 13.79 28.50 14.20Q28.15 14.60 27.58 14.85L27.58 14.85Q26.78 14.88 26.20 14.81Q25.61 14.74 25.03 14.51L25.03 14.51Q24.99 14.49 24.96 14.42Q24.92 14.36 24.90 14.33L24.90 14.33Q24.79 14.26 24.65 14.27Q24.51 14.29 24.42 14.25L24.42 14.25Q24.29 14.19 24.01 14Q23.73 13.81 23.50 13.64L23.50 13.64Q23.21 13.41 22.95 13.19Q22.68 12.96 22.48 12.69L22.48 12.69Q22.44 12.62 22.36 12.62Q22.29 12.62 22.22 12.58L22.22 12.58Q21.74 12.88 21.42 13.32Q21.10 13.77 20.79 14.23Q20.49 14.68 20.16 15.09Q19.82 15.49 19.32 15.71L19.32 15.71Q19.17 15.71 19.06 15.66Q18.95 15.61 18.85 15.54Q18.76 15.46 18.66 15.39Q18.57 15.33 18.44 15.30L18.44 15.30Q18.44 15.11 18.37 14.94Q18.29 14.77 18.22 14.62Q18.14 14.48 18.11 14.34Q18.07 14.21 18.18 14.07L18.18 14.07Q18.03 13.95 17.90 13.86L17.90 13.86Q17.99 13.77 17.99 13.69Q17.98 13.60 17.94 13.52Q17.90 13.44 17.88 13.35Q17.86 13.26 17.92 13.15L17.92 13.15Q17.98 13.14 17.97 13.10Q17.96 13.06 18.01 13.03Z"></path></g><!----><g data-v-423bf9ae="" id="fbd2455e-ebf8-4102-8b89-3f1604830970" transform="matrix(1.0868111504448785,0,0,1.0868111504448785,-13.255261890115804,-0.23894260335429607)" stroke="none" fill="#81E291"><g clip-rule="evenodd"><path d="M12.983 10.59l17.018 88.223-5.872-59.049 29.021-1.892-.054-9.883L64.549 1 53.622 18.977z"></path><path d="M59.389 54.548l5.16-53.541-8.74 39.716-19.612 1.045 1.57 20.462-7.766 36.583 12.057-39.899z"></path><path d="M62.8 67.182l.549-10.453-15.979 3.755-.032 11.797-17.337 26.532 21.68-27.616zM65.711 62.394l14.841-4.731 1.509-12.532-15.899 2.095zM72.07 44.502l10.988-1.417 1.581-10.278-8.079-.373L64.549 1l8.43 30.967z"></path><path d="M87.413 31.294l1.256-9.506-9.544-2.694L64.549 1l14.483 22.437-.422 7z"></path></g></g><!----><g data-v-423bf9ae="" id="a538b975-d182-41e3-a513-8880636543c5" fill="#FFFFFF" transform="matrix(0.41770431961723803,0,0,0.41770431961723803,101.62565181532017,57.99919764566666)"><path d="M7.20 9.21L7.20 9.21Q7.66 9.21 7.92 9.46Q8.18 9.72 8.18 10.16L8.18 10.16Q8.18 10.28 8.15 10.39Q8.13 10.51 8.11 10.60L8.11 10.60Q7.92 10.57 7.70 10.55Q7.48 10.53 7.17 10.53L7.17 10.53Q6.57 10.53 5.95 10.63Q5.33 10.74 4.77 10.81L4.77 10.81Q4.45 11.55 4.19 12.24Q3.92 12.94 3.73 13.51Q3.54 14.08 3.44 14.50Q3.33 14.92 3.32 15.13L3.32 15.13Q4.45 14.90 5.61 14.73Q6.76 14.56 8.04 14.48L8.04 14.48Q8.19 14.71 8.29 14.99Q8.40 15.27 8.40 15.60L8.40 15.60Q8.40 15.68 8.40 15.78Q8.40 15.88 8.37 15.97L8.37 15.97Q7.98 15.96 7.55 15.95Q7.11 15.95 6.41 15.95L6.41 15.95Q5.95 15.95 5.54 15.97Q5.12 15.99 4.70 16.03Q4.28 16.07 3.81 16.14Q3.35 16.21 2.76 16.31L2.76 16.31Q2.11 16.06 1.51 15.08L1.51 15.08Q1.75 14.57 2.18 13.54Q2.60 12.52 3.26 10.79L3.26 10.79Q2.63 10.60 2.44 10.09L2.44 10.09Q2.51 10.02 2.84 9.92Q3.18 9.81 3.67 9.70L3.67 9.70Q3.88 9.16 4.03 8.75Q4.17 8.34 4.28 7.99Q4.40 7.63 4.49 7.29Q4.58 6.94 4.66 6.54L4.66 6.54Q4.17 6.51 3.89 6.27Q3.61 6.02 3.61 5.63L3.61 5.63Q3.61 5.52 3.65 5.36Q3.68 5.21 3.72 5.10L3.72 5.10Q4.00 5.14 4.26 5.15Q4.52 5.17 4.94 5.17L4.94 5.17Q5.82 5.17 6.59 5.12Q7.36 5.07 7.99 5.01Q8.61 4.96 9.06 4.91Q9.51 4.86 9.74 4.86L9.74 4.86Q10.07 4.86 10.32 5.19Q10.57 5.53 10.70 6.15L10.70 6.15Q10.26 6.10 9.99 6.09Q9.72 6.08 9.51 6.08L9.51 6.08Q8.74 6.08 8.10 6.15Q7.46 6.23 6.87 6.31L6.87 6.31Q6.79 6.44 6.69 6.64Q6.58 6.83 6.41 7.18Q6.24 7.53 6.00 8.06Q5.75 8.60 5.40 9.39L5.40 9.39Q5.94 9.31 6.41 9.26Q6.87 9.21 7.20 9.21ZM23.88 4.98L23.88 4.98Q24.12 5.10 24.39 5.27Q24.65 5.45 24.88 5.63Q25.10 5.82 25.26 6.00Q25.41 6.17 25.41 6.27L25.41 6.27Q25.21 6.23 24.98 6.20Q24.75 6.17 24.54 6.17L24.54 6.17Q23.79 6.17 23.07 6.50Q22.36 6.83 21.71 7.45Q21.07 8.06 20.53 8.95Q19.99 9.84 19.60 10.96L19.60 10.96Q19.28 11.90 19.08 12.82Q18.89 13.73 18.89 14.35L18.89 14.35Q18.89 15.13 19.21 15.16L19.21 15.16Q19.29 15.16 19.50 15.20Q19.70 15.23 19.93 15.29Q20.16 15.34 20.39 15.41Q20.62 15.47 20.78 15.53L20.78 15.53Q21.31 15.50 22.02 15.04Q22.74 14.57 23.42 13.80L23.42 13.80Q24.02 13.13 24.51 12.33Q24.99 11.52 25.33 10.63Q25.66 9.74 25.84 8.81Q26.01 7.87 26.01 6.94L26.01 6.94Q26.01 6.66 26.00 6.40Q25.98 6.13 25.96 6.03L25.96 6.03Q26.53 6.31 26.77 6.69Q27.01 7.07 27.01 7.66L27.01 7.66Q27.01 8.50 26.74 9.46Q26.47 10.43 26.01 11.40Q25.54 12.36 24.89 13.25Q24.25 14.14 23.49 14.84L23.49 14.84Q22.50 15.76 21.87 15.88L21.87 15.88Q22.25 16.07 22.74 16.30Q23.23 16.53 23.69 16.74Q24.15 16.94 24.51 17.08Q24.88 17.22 25.00 17.23L25.00 17.23Q25.14 17.22 25.37 17.06Q25.59 16.90 25.75 16.67L25.75 16.67Q25.82 16.76 25.88 16.90Q25.94 17.04 25.96 17.11L25.96 17.11Q25.90 17.30 25.73 17.56Q25.55 17.82 25.33 18.07Q25.10 18.31 24.87 18.49Q24.64 18.68 24.47 18.72L24.47 18.72Q24.23 18.70 24.03 18.66Q23.83 18.61 23.59 18.50Q23.35 18.40 23.06 18.21Q22.76 18.02 22.33 17.72L22.33 17.72Q21.56 17.19 20.99 16.84Q20.41 16.49 19.94 16.28Q19.46 16.07 19.04 15.99Q18.62 15.90 18.17 15.90L18.17 15.90Q16.60 15.90 16.44 16.95L16.44 16.95Q16.23 16.86 16.20 16.69L16.20 16.69Q16.28 15.97 16.72 15.60Q17.16 15.22 18.09 15.11L18.09 15.11Q17.44 14.55 17.44 13.15L17.44 13.15Q17.44 12.17 17.68 11.16Q17.91 10.16 18.30 9.24Q18.70 8.32 19.24 7.51Q19.78 6.71 20.41 6.10Q21.03 5.50 21.70 5.16Q22.37 4.82 23.03 4.82L23.03 4.82Q23.27 4.82 23.47 4.86Q23.67 4.90 23.88 4.98ZM39.38 5.75L39.38 5.75Q38.77 6.58 38.26 7.57Q37.76 8.57 37.40 9.61Q37.04 10.65 36.85 11.67Q36.67 12.68 36.67 13.57L36.67 13.57Q36.67 14.66 36.99 15.15Q37.31 15.64 38.09 15.64L38.09 15.64Q39.00 15.64 39.69 15.00Q40.38 14.36 40.98 13.24L40.98 13.24Q41.37 12.52 41.65 11.65Q41.93 10.78 42.10 9.86Q42.28 8.95 42.36 8.02Q42.45 7.08 42.45 6.23L42.45 6.23Q42.45 5.68 42.43 5.43Q42.42 5.18 42.39 5.03L42.39 5.03Q42.43 5.03 42.60 5.05Q42.77 5.08 42.99 5.12Q43.20 5.17 43.42 5.24Q43.64 5.31 43.79 5.39L43.79 5.39Q43.72 6.45 43.53 7.59Q43.34 8.72 43.04 9.83Q42.73 10.93 42.32 11.96Q41.92 12.98 41.41 13.79L41.41 13.79Q40.67 14.99 39.75 15.67Q38.82 16.35 37.56 16.35L37.56 16.35Q36.27 16.35 35.56 15.60Q34.85 14.85 34.85 13.33L34.85 13.33Q34.85 12.45 35.04 11.33Q35.24 10.22 35.57 9.07Q35.90 7.91 36.33 6.81Q36.76 5.71 37.24 4.84L37.24 4.84Q37.48 4.86 37.80 4.94Q38.12 5.03 38.43 5.16Q38.74 5.29 39.00 5.45Q39.26 5.61 39.38 5.75ZM51.18 14.38L51.18 14.38Q51.18 13.87 51.34 13.07Q51.51 12.26 51.77 11.33Q52.02 10.40 52.36 9.43Q52.70 8.46 53.05 7.60Q53.40 6.75 53.73 6.10Q54.07 5.46 54.33 5.18L54.33 5.18Q54.47 5.19 54.70 5.29Q54.94 5.38 55.17 5.50Q55.41 5.63 55.61 5.78Q55.80 5.92 55.86 6.05L55.86 6.05Q55.45 6.41 55.05 7.15Q54.66 7.88 54.29 8.82Q53.91 9.76 53.59 10.80Q53.27 11.84 53.03 12.82Q52.79 13.80 52.66 14.64Q52.53 15.48 52.53 16.00L52.53 16.00Q52.53 16.24 52.57 16.30L52.57 16.30Q52.26 16.28 52.12 16.19Q51.98 16.10 51.91 16.00Q51.83 15.89 51.77 15.79Q51.70 15.68 51.58 15.62L51.58 15.62Q51.48 15.58 51.41 15.43Q51.34 15.27 51.29 15.09Q51.24 14.90 51.21 14.70Q51.18 14.50 51.18 14.38ZM71.71 7.63L71.71 7.63Q71.71 8.40 71.32 9.10Q70.94 9.80 70.29 10.32Q69.64 10.85 68.76 11.16Q67.89 11.47 66.91 11.47L66.91 11.47Q66.56 11.47 66.35 11.38Q66.15 11.28 65.90 11.02L65.90 11.02Q65.20 12.54 64.76 13.82Q64.32 15.11 64.06 16.31L64.06 16.31Q63.53 16.18 63.20 15.87Q62.86 15.55 62.58 15.08L62.58 15.08Q62.72 14.81 62.92 14.38Q63.11 13.94 63.39 13.31Q63.67 12.67 64.04 11.78Q64.41 10.89 64.92 9.70L64.92 9.70Q65.14 9.16 65.31 8.75Q65.48 8.34 65.60 7.99Q65.73 7.63 65.84 7.28Q65.94 6.93 66.05 6.51L66.05 6.51Q65.39 6.72 64.84 7Q64.29 7.28 63.92 7.59L63.92 7.59Q63.80 7.50 63.67 7.34Q63.53 7.17 63.42 6.96Q63.31 6.76 63.22 6.55Q63.14 6.34 63.13 6.17L63.13 6.17Q63.53 5.89 64.13 5.66Q64.74 5.42 65.42 5.24Q66.11 5.07 66.84 4.97Q67.58 4.87 68.25 4.87L68.25 4.87Q69.05 4.87 69.69 5.07Q70.34 5.28 70.78 5.64Q71.23 6.01 71.47 6.51Q71.71 7.01 71.71 7.63ZM69.22 5.95L69.22 5.95Q68.68 5.95 68.12 6.03L68.12 6.03L68.29 6.29Q68.15 6.47 67.94 6.83Q67.73 7.20 67.48 7.71Q67.23 8.22 66.93 8.85Q66.63 9.48 66.29 10.18L66.29 10.18Q67.38 10.18 68.28 9.97Q69.17 9.77 69.81 9.41Q70.45 9.06 70.81 8.58Q71.16 8.11 71.16 7.56L71.16 7.56Q71.16 6.83 70.67 6.39Q70.18 5.95 69.22 5.95ZM89.12 16.24L89.12 16.24Q88.45 16.04 88.19 15.85Q87.93 15.65 87.93 15.36L87.93 15.36Q87.93 15.13 88.06 14.73Q88.19 14.32 88.43 13.77Q88.68 13.22 89.02 12.54Q89.36 11.87 89.80 11.10L89.80 11.10Q89.43 11.09 89.14 11.08Q88.86 11.07 88.68 11.07L88.68 11.07Q88.76 10.86 89.15 10.71Q89.54 10.56 90.19 10.44L90.19 10.44Q90.73 9.53 91.36 8.71Q91.98 7.88 92.61 7.19Q93.24 6.50 93.87 5.97Q94.50 5.45 95.07 5.14L95.07 5.14Q95.09 5.04 95.09 4.97Q95.10 4.90 95.10 4.87L95.10 4.87Q95.30 4.87 95.63 4.97Q95.96 5.07 96.27 5.21Q96.59 5.35 96.83 5.49Q97.08 5.64 97.10 5.74L97.10 5.74Q96.64 6.55 96.19 8.17Q95.75 9.79 95.45 12.04L95.45 12.04Q95.38 12.60 95.33 13.31Q95.28 14.03 95.28 14.91L95.28 14.91Q95.28 15.22 95.28 15.54Q95.28 15.86 95.31 16.21L95.31 16.21Q95.28 16.23 95.26 16.23Q95.23 16.23 95.14 16.23L95.14 16.23Q94.95 16.23 94.69 16.16Q94.43 16.10 94.19 16.01Q93.94 15.92 93.77 15.81Q93.59 15.69 93.55 15.61L93.55 15.61Q93.53 15.43 93.53 15.25Q93.53 15.08 93.53 14.88L93.53 14.88Q93.53 14.01 93.60 13.12Q93.66 12.22 93.81 11.27L93.81 11.27Q93.62 11.26 93.30 11.23Q92.97 11.21 92.58 11.20Q92.18 11.19 91.72 11.16Q91.27 11.14 90.83 11.13L90.83 11.13Q90.50 11.76 90.20 12.38Q89.91 13.01 89.70 13.64L89.70 13.64Q89.46 14.31 89.31 14.98Q89.17 15.65 89.12 16.24ZM94.53 7.83L94.53 7.83Q94.58 7.63 94.66 7.29Q94.74 6.94 94.81 6.57L94.81 6.57Q94.46 6.69 94.03 7.03Q93.60 7.36 93.15 7.86Q92.69 8.36 92.22 8.98Q91.76 9.60 91.32 10.30L91.32 10.30Q92.50 10.21 94.00 10.18L94.00 10.18Q94.11 9.59 94.24 9.01Q94.37 8.43 94.53 7.83ZM105.73 16.24L105.73 16.24Q104.93 16.00 104.65 15.79Q104.37 15.57 104.37 15.19L104.37 15.19Q104.37 14.77 104.57 14.01Q104.76 13.24 105.08 12.31Q105.39 11.37 105.80 10.35Q106.20 9.32 106.62 8.39Q107.04 7.45 107.44 6.67Q107.84 5.89 108.15 5.46L108.15 5.46L108.05 4.87Q108.25 4.87 108.60 4.97Q108.95 5.07 109.30 5.21Q109.66 5.35 109.94 5.49Q110.21 5.64 110.24 5.74L110.24 5.74Q110.17 6.08 110.12 6.76Q110.08 7.43 110.08 8.20L110.08 8.20Q110.08 9.73 110.20 11.19Q110.32 12.66 110.75 14.17L110.75 14.17Q110.98 13.05 111.24 11.94Q111.50 10.82 111.78 9.81Q112.06 8.79 112.34 7.92Q112.62 7.06 112.88 6.40Q113.13 5.75 113.36 5.38Q113.58 5.01 113.76 4.98L113.76 4.98Q113.92 5.01 114.10 5.10Q114.28 5.19 114.45 5.32Q114.62 5.45 114.76 5.60Q114.90 5.75 114.98 5.91L114.98 5.91Q114.53 6.09 114.09 6.76Q113.65 7.43 113.25 8.39Q112.85 9.35 112.51 10.47Q112.17 11.59 111.91 12.68Q111.65 13.76 111.50 14.69Q111.36 15.61 111.34 16.17L111.34 16.17Q111.34 16.20 111.36 16.21L111.36 16.21Q111.31 16.23 111.27 16.23Q111.22 16.23 111.17 16.23L111.17 16.23Q110.53 16.23 110.03 16.07Q109.54 15.90 109.38 15.61L109.38 15.61Q109.09 14.43 108.89 13.34Q108.70 12.25 108.56 11.16Q108.43 10.07 108.35 8.95Q108.28 7.84 108.23 6.62L108.23 6.62Q107.97 7.04 107.67 7.72Q107.38 8.40 107.10 9.21Q106.82 10.02 106.56 10.92Q106.30 11.82 106.11 12.67Q105.91 13.52 105.80 14.29Q105.69 15.05 105.69 15.61L105.69 15.61Q105.69 15.90 105.69 16.03Q105.70 16.16 105.73 16.24ZM121.98 14.45L121.98 14.45Q122.19 13.99 122.49 13.26Q122.78 12.53 123.10 11.68Q123.42 10.84 123.76 9.95Q124.10 9.06 124.39 8.26Q124.68 7.46 124.90 6.83Q125.12 6.20 125.22 5.87L125.22 5.87Q124.33 6.23 123.70 6.97Q123.07 7.71 122.75 8.83L122.75 8.83Q122.43 8.72 122.16 8.43Q121.90 8.15 121.81 7.71L121.81 7.71Q121.95 7.07 122.34 6.54Q122.72 6.01 123.31 5.63Q123.90 5.25 124.67 5.05Q125.44 4.84 126.32 4.84L126.32 4.84Q127.44 4.84 128.38 5.17Q129.32 5.50 129.99 6.09Q130.66 6.68 131.04 7.50Q131.42 8.33 131.42 9.34L131.42 9.34Q131.42 10.71 130.91 11.96Q130.41 13.20 129.55 14.15Q128.69 15.11 127.55 15.67Q126.42 16.24 125.17 16.24L125.17 16.24Q124.03 16.24 123.21 15.79Q122.39 15.33 121.98 14.45ZM126.92 5.54L126.92 5.54Q126.22 5.54 125.59 5.74L125.59 5.74Q126.21 5.96 126.62 6.21Q127.02 6.45 127.18 6.59L127.18 6.59Q127.06 6.75 126.85 7.14Q126.63 7.53 126.34 8.09Q126.06 8.65 125.73 9.32Q125.41 9.98 125.10 10.68L125.10 10.68Q124.31 12.46 123.95 13.48Q123.59 14.50 123.59 14.90L123.59 14.90Q123.79 14.97 124.07 14.99Q124.35 15.02 124.67 15.02L124.67 15.02Q125.80 15.02 126.82 14.50Q127.83 13.97 128.60 13.09Q129.36 12.21 129.80 11.04Q130.24 9.87 130.24 8.58L130.24 8.58Q130.24 7.14 129.35 6.34Q128.45 5.54 126.92 5.54ZM158.80 7.63L158.80 7.63Q158.80 8.40 158.42 9.10Q158.03 9.80 157.38 10.32Q156.73 10.85 155.85 11.16Q154.98 11.47 154.00 11.47L154.00 11.47Q153.65 11.47 153.45 11.38Q153.24 11.28 152.99 11.02L152.99 11.02Q152.29 12.54 151.85 13.82Q151.41 15.11 151.16 16.31L151.16 16.31Q150.63 16.18 150.29 15.87Q149.95 15.55 149.67 15.08L149.67 15.08Q149.81 14.81 150.01 14.38Q150.21 13.94 150.49 13.31Q150.77 12.67 151.14 11.78Q151.51 10.89 152.01 9.70L152.01 9.70Q152.24 9.16 152.40 8.75Q152.57 8.34 152.70 7.99Q152.82 7.63 152.93 7.28Q153.03 6.93 153.15 6.51L153.15 6.51Q152.49 6.72 151.93 7Q151.38 7.28 151.02 7.59L151.02 7.59Q150.89 7.50 150.76 7.34Q150.63 7.17 150.51 6.96Q150.40 6.76 150.32 6.55Q150.23 6.34 150.22 6.17L150.22 6.17Q150.63 5.89 151.23 5.66Q151.83 5.42 152.52 5.24Q153.20 5.07 153.94 4.97Q154.67 4.87 155.34 4.87L155.34 4.87Q156.14 4.87 156.79 5.07Q157.43 5.28 157.88 5.64Q158.33 6.01 158.56 6.51Q158.80 7.01 158.80 7.63ZM156.31 5.95L156.31 5.95Q155.78 5.95 155.22 6.03L155.22 6.03L155.39 6.29Q155.25 6.47 155.04 6.83Q154.83 7.20 154.57 7.71Q154.32 8.22 154.02 8.85Q153.72 9.48 153.38 10.18L153.38 10.18Q154.48 10.18 155.37 9.97Q156.27 9.77 156.90 9.41Q157.54 9.06 157.90 8.58Q158.26 8.11 158.26 7.56L158.26 7.56Q158.26 6.83 157.77 6.39Q157.28 5.95 156.31 5.95ZM171.71 4.98L171.71 4.98Q171.98 5.10 172.26 5.27Q172.54 5.45 172.77 5.63Q173.01 5.81 173.17 5.98Q173.33 6.16 173.35 6.27L173.35 6.27Q173.11 6.22 172.87 6.20Q172.63 6.17 172.44 6.17L172.44 6.17Q171.81 6.17 171.18 6.48Q170.56 6.79 170.00 7.32Q169.44 7.85 168.97 8.57Q168.49 9.28 168.15 10.09Q167.80 10.91 167.61 11.77Q167.41 12.64 167.41 13.48L167.41 13.48Q167.41 14.57 167.78 15.11Q168.14 15.64 168.84 15.64L168.84 15.64Q169.18 15.64 169.57 15.51Q169.96 15.37 170.37 15.13Q170.77 14.90 171.16 14.56Q171.56 14.22 171.89 13.82L171.89 13.82Q172.38 13.23 172.77 12.48Q173.17 11.73 173.44 10.89Q173.71 10.05 173.86 9.16Q174.01 8.27 174.01 7.42L174.01 7.42Q174.01 7.08 173.99 6.85Q173.98 6.62 173.96 6.46Q173.94 6.30 173.92 6.20Q173.91 6.10 173.89 6.03L173.89 6.03Q174.06 6.12 174.26 6.24Q174.47 6.36 174.64 6.59Q174.82 6.82 174.94 7.20Q175.06 7.57 175.06 8.18L175.06 8.18Q175.06 9.16 174.82 10.10Q174.59 11.05 174.18 11.90Q173.77 12.75 173.21 13.50Q172.65 14.24 172.00 14.80L172.00 14.80Q171.16 15.54 170.21 15.95Q169.26 16.35 168.38 16.35L168.38 16.35Q167.09 16.35 166.41 15.53Q165.73 14.71 165.73 13.12L165.73 13.12Q165.73 12.26 165.92 11.31Q166.11 10.36 166.45 9.44Q166.80 8.51 167.27 7.68Q167.75 6.85 168.31 6.21Q168.88 5.57 169.53 5.19Q170.18 4.82 170.87 4.82L170.87 4.82Q171.09 4.82 171.29 4.85Q171.49 4.89 171.71 4.98ZM183.99 15.61L183.99 15.61Q183.92 15.04 183.88 14.36Q183.85 13.68 183.85 13.09L183.85 13.09Q183.85 12.15 183.91 11.29Q183.97 10.43 184.06 9.48Q184.16 8.54 184.27 7.43Q184.38 6.31 184.46 4.86L184.46 4.86Q184.65 4.86 184.99 4.96Q185.33 5.07 185.68 5.21Q186.03 5.35 186.30 5.49Q186.56 5.64 186.61 5.74L186.61 5.74Q186.37 6.29 186.18 7.18Q185.99 8.06 185.86 9.11Q185.74 10.16 185.67 11.27Q185.60 12.38 185.60 13.34L185.60 13.34Q185.60 13.79 185.61 14.22Q185.63 14.66 185.65 15.02L185.65 15.02Q185.95 14.59 186.33 13.78Q186.72 12.98 187.13 11.98Q187.54 10.99 187.96 9.91Q188.37 8.82 188.72 7.83Q189.07 6.85 189.31 6.05Q189.56 5.26 189.66 4.86L189.66 4.86Q189.84 4.86 190.20 4.96Q190.55 5.07 190.90 5.21Q191.24 5.35 191.51 5.49Q191.77 5.64 191.80 5.74L191.80 5.74Q191.56 6.29 191.37 7.18Q191.18 8.06 191.06 9.11Q190.93 10.16 190.86 11.27Q190.79 12.38 190.79 13.34L190.79 13.34Q190.79 13.75 190.80 14.15Q190.81 14.55 190.83 14.87L190.83 14.87Q191.28 13.71 191.77 12.56Q192.25 11.42 192.72 10.38Q193.20 9.34 193.65 8.43Q194.10 7.53 194.47 6.82Q194.85 6.12 195.13 5.66Q195.41 5.19 195.57 5.04L195.57 5.04Q195.89 5.08 196.23 5.27Q196.57 5.46 196.84 5.75L196.84 5.75Q196.43 6.08 195.92 6.81Q195.40 7.55 194.85 8.51Q194.31 9.48 193.75 10.57Q193.20 11.66 192.72 12.70Q192.25 13.73 191.88 14.63Q191.51 15.53 191.31 16.07L191.31 16.07Q190.95 16.24 190.60 16.24L190.60 16.24Q190.15 16.18 189.75 16.02Q189.35 15.85 189.18 15.61L189.18 15.61Q189.14 15.39 189.11 15.09Q189.08 14.78 189.07 14.49Q189.06 14.20 189.05 13.92Q189.04 13.65 189.04 13.45L189.04 13.45Q189.04 12.21 189.14 10.91Q189.24 9.62 189.38 8.13L189.38 8.13Q189.06 9.09 188.66 10.18Q188.27 11.27 187.84 12.34Q187.42 13.41 186.98 14.38Q186.54 15.36 186.12 16.07L186.12 16.07Q185.75 16.24 185.40 16.24L185.40 16.24Q184.95 16.18 184.56 16.02Q184.16 15.85 183.99 15.61ZM208.32 9.21L208.32 9.21Q208.78 9.21 209.04 9.46Q209.30 9.72 209.30 10.16L209.30 10.16Q209.30 10.28 209.28 10.39Q209.26 10.51 209.23 10.60L209.23 10.60Q209.05 10.57 208.82 10.55Q208.60 10.53 208.29 10.53L208.29 10.53Q207.69 10.53 207.07 10.63Q206.46 10.74 205.90 10.81L205.90 10.81Q205.58 11.55 205.31 12.24Q205.04 12.94 204.86 13.51Q204.67 14.08 204.56 14.50Q204.46 14.92 204.44 15.13L204.44 15.13Q205.58 14.90 206.73 14.73Q207.89 14.56 209.16 14.48L209.16 14.48Q209.31 14.71 209.42 14.99Q209.52 15.27 209.52 15.60L209.52 15.60Q209.52 15.68 209.52 15.78Q209.52 15.88 209.50 15.97L209.50 15.97Q209.10 15.96 208.67 15.95Q208.24 15.95 207.54 15.95L207.54 15.95Q207.07 15.95 206.66 15.97Q206.25 15.99 205.83 16.03Q205.41 16.07 204.94 16.14Q204.47 16.21 203.88 16.31L203.88 16.31Q203.24 16.06 202.64 15.08L202.64 15.08Q202.87 14.57 203.30 13.54Q203.73 12.52 204.39 10.79L204.39 10.79Q203.76 10.60 203.56 10.09L203.56 10.09Q203.63 10.02 203.97 9.92Q204.30 9.81 204.79 9.70L204.79 9.70Q205.00 9.16 205.15 8.75Q205.30 8.34 205.41 7.99Q205.52 7.63 205.61 7.29Q205.70 6.94 205.79 6.54L205.79 6.54Q205.30 6.51 205.02 6.27Q204.74 6.02 204.74 5.63L204.74 5.63Q204.74 5.52 204.77 5.36Q204.81 5.21 204.85 5.10L204.85 5.10Q205.13 5.14 205.39 5.15Q205.65 5.17 206.07 5.17L206.07 5.17Q206.95 5.17 207.72 5.12Q208.49 5.07 209.11 5.01Q209.73 4.96 210.18 4.91Q210.63 4.86 210.87 4.86L210.87 4.86Q211.19 4.86 211.44 5.19Q211.69 5.53 211.82 6.15L211.82 6.15Q211.39 6.10 211.11 6.09Q210.84 6.08 210.63 6.08L210.63 6.08Q209.86 6.08 209.22 6.15Q208.59 6.23 208.00 6.31L208.00 6.31Q207.91 6.44 207.81 6.64Q207.70 6.83 207.54 7.18Q207.37 7.53 207.12 8.06Q206.88 8.60 206.53 9.39L206.53 9.39Q207.06 9.31 207.53 9.26Q208.00 9.21 208.32 9.21ZM227.58 7.46L227.58 7.46Q227.58 8.13 227.28 8.73Q226.98 9.32 226.45 9.79Q225.92 10.26 225.20 10.58Q224.49 10.91 223.65 11.02L223.65 11.02Q223.86 11.65 224.16 12.31Q224.46 12.98 224.81 13.59Q225.16 14.21 225.54 14.73Q225.92 15.25 226.28 15.58L226.28 15.58Q226.21 15.72 226.08 15.86Q225.95 16.00 225.77 16.12Q225.60 16.24 225.41 16.32Q225.22 16.39 225.05 16.39L225.05 16.39Q224.74 16.39 224.46 16.10Q224.18 15.81 223.90 15.17Q223.61 14.53 223.29 13.52Q222.98 12.50 222.60 11.07L222.60 11.07Q222.45 11.07 222.29 11.07Q222.14 11.07 222.05 11.05L222.05 11.05Q221.96 10.99 221.84 10.85L221.84 10.85Q221.47 11.66 221.17 12.38Q220.88 13.09 220.65 13.76Q220.42 14.42 220.24 15.04Q220.07 15.67 219.94 16.31L219.94 16.31Q219.46 16.20 219.11 15.90Q218.76 15.61 218.46 15.08L218.46 15.08Q218.51 14.95 218.58 14.83Q218.64 14.71 218.74 14.50Q218.83 14.28 218.98 13.94Q219.13 13.61 219.37 13.05Q219.62 12.49 219.96 11.68Q220.30 10.86 220.79 9.70L220.79 9.70Q221.02 9.18 221.18 8.79Q221.34 8.40 221.47 8.04Q221.59 7.69 221.70 7.33Q221.80 6.97 221.91 6.51L221.91 6.51Q221.27 6.73 220.72 7.01Q220.16 7.28 219.80 7.59L219.80 7.59Q219.67 7.50 219.54 7.34Q219.41 7.17 219.30 6.96Q219.18 6.76 219.10 6.55Q219.02 6.34 219.00 6.17L219.00 6.17Q219.42 5.89 220.03 5.66Q220.64 5.42 221.33 5.24Q222.01 5.07 222.73 4.97Q223.44 4.87 224.06 4.87L224.06 4.87Q225.74 4.87 226.66 5.56Q227.58 6.26 227.58 7.46ZM224.00 6.02L224.17 6.29Q224.07 6.41 223.86 6.79Q223.65 7.17 223.38 7.69Q223.10 8.22 222.80 8.83Q222.50 9.45 222.22 10.05L222.22 10.05Q223.27 10.05 224.15 9.86Q225.04 9.66 225.68 9.30Q226.32 8.95 226.68 8.46Q227.04 7.98 227.04 7.39L227.04 7.39Q227.04 6.69 226.53 6.32Q226.03 5.95 224.98 5.95L224.98 5.95Q224.74 5.95 224.50 5.97Q224.27 5.99 224.00 6.02L224.00 6.02ZM248.33 10.74L248.33 10.74Q249.20 9.45 250.05 8.37Q250.89 7.28 251.66 6.50Q252.43 5.71 253.08 5.28Q253.72 4.84 254.20 4.84L254.20 4.84Q254.38 4.84 254.60 4.98Q254.81 5.12 255.00 5.35Q255.19 5.57 255.32 5.83Q255.44 6.09 255.44 6.33L255.44 6.33Q254.58 6.61 253.74 7.06Q252.91 7.52 252.15 8.11Q251.38 8.71 250.69 9.44Q250.00 10.16 249.44 10.99L249.44 10.99Q249.66 11.56 249.99 12.21Q250.32 12.87 250.71 13.47Q251.10 14.08 251.55 14.60Q252.00 15.12 252.46 15.43L252.46 15.43Q252.39 15.58 252.22 15.72Q252.06 15.86 251.86 15.98Q251.66 16.10 251.45 16.17Q251.23 16.24 251.05 16.24L251.05 16.24Q250.68 16.24 250.38 15.90Q250.07 15.55 249.75 14.86Q249.44 14.17 249.10 13.14Q248.75 12.11 248.33 10.74ZM246.22 16.31L246.22 16.31Q245.69 16.18 245.34 15.87Q244.99 15.55 244.69 15.08L244.69 15.08Q244.82 14.81 244.99 14.38Q245.17 13.94 245.42 13.31Q245.67 12.67 246.02 11.78Q246.37 10.89 246.83 9.70L246.83 9.70Q247.13 8.95 247.32 8.43Q247.51 7.91 247.64 7.41Q247.77 6.92 247.90 6.31Q248.02 5.71 248.19 4.79L248.19 4.79Q248.78 4.90 249.26 5.31Q249.75 5.71 250.10 6.29L250.10 6.29Q249.94 6.48 249.74 6.88Q249.54 7.28 249.28 7.84Q249.03 8.40 248.72 9.09Q248.42 9.77 248.08 10.54L248.08 10.54Q247.32 12.22 246.89 13.62Q246.46 15.01 246.22 16.31ZM266.99 9.21L266.99 9.21Q267.46 9.21 267.71 9.46Q267.97 9.72 267.97 10.16L267.97 10.16Q267.97 10.28 267.95 10.39Q267.93 10.51 267.90 10.60L267.90 10.60Q267.72 10.57 267.50 10.55Q267.27 10.53 266.97 10.53L266.97 10.53Q266.36 10.53 265.75 10.63Q265.13 10.74 264.57 10.81L264.57 10.81Q264.25 11.55 263.98 12.24Q263.72 12.94 263.53 13.51Q263.34 14.08 263.24 14.50Q263.13 14.92 263.12 15.13L263.12 15.13Q264.25 14.90 265.41 14.73Q266.56 14.56 267.83 14.48L267.83 14.48Q267.99 14.71 268.09 14.99Q268.20 15.27 268.20 15.60L268.20 15.60Q268.20 15.68 268.20 15.78Q268.20 15.88 268.17 15.97L268.17 15.97Q267.78 15.96 267.34 15.95Q266.91 15.95 266.21 15.95L266.21 15.95Q265.75 15.95 265.33 15.97Q264.92 15.99 264.50 16.03Q264.08 16.07 263.61 16.14Q263.14 16.21 262.56 16.31L262.56 16.31Q261.91 16.06 261.31 15.08L261.31 15.08Q261.55 14.57 261.98 13.54Q262.40 12.52 263.06 10.79L263.06 10.79Q262.43 10.60 262.23 10.09L262.23 10.09Q262.30 10.02 262.64 9.92Q262.98 9.81 263.47 9.70L263.47 9.70Q263.68 9.16 263.82 8.75Q263.97 8.34 264.08 7.99Q264.19 7.63 264.29 7.29Q264.38 6.94 264.46 6.54L264.46 6.54Q263.97 6.51 263.69 6.27Q263.41 6.02 263.41 5.63L263.41 5.63Q263.41 5.52 263.44 5.36Q263.48 5.21 263.52 5.10L263.52 5.10Q263.80 5.14 264.06 5.15Q264.32 5.17 264.74 5.17L264.74 5.17Q265.62 5.17 266.39 5.12Q267.16 5.07 267.79 5.01Q268.41 4.96 268.86 4.91Q269.30 4.86 269.54 4.86L269.54 4.86Q269.86 4.86 270.12 5.19Q270.37 5.53 270.49 6.15L270.49 6.15Q270.06 6.10 269.79 6.09Q269.51 6.08 269.30 6.08L269.30 6.08Q268.53 6.08 267.90 6.15Q267.26 6.23 266.67 6.31L266.67 6.31Q266.59 6.44 266.48 6.64Q266.38 6.83 266.21 7.18Q266.04 7.53 265.80 8.06Q265.55 8.60 265.20 9.39L265.20 9.39Q265.73 9.31 266.20 9.26Q266.67 9.21 266.99 9.21ZM277.98 16.24L277.98 16.24Q277.19 16.00 276.91 15.79Q276.63 15.57 276.63 15.19L276.63 15.19Q276.63 14.77 276.82 14.01Q277.02 13.24 277.33 12.31Q277.65 11.37 278.05 10.35Q278.46 9.32 278.88 8.39Q279.30 7.45 279.70 6.67Q280.10 5.89 280.41 5.46L280.41 5.46L280.31 4.87Q280.50 4.87 280.85 4.97Q281.20 5.07 281.56 5.21Q281.92 5.35 282.19 5.49Q282.46 5.64 282.49 5.74L282.49 5.74Q282.42 6.08 282.38 6.76Q282.34 7.43 282.34 8.20L282.34 8.20Q282.34 9.73 282.46 11.19Q282.58 12.66 283.01 14.17L283.01 14.17Q283.23 13.05 283.49 11.94Q283.75 10.82 284.03 9.81Q284.31 8.79 284.59 7.92Q284.87 7.06 285.13 6.40Q285.39 5.75 285.61 5.38Q285.84 5.01 286.02 4.98L286.02 4.98Q286.17 5.01 286.36 5.10Q286.54 5.19 286.71 5.32Q286.87 5.45 287.01 5.60Q287.15 5.75 287.24 5.91L287.24 5.91Q286.79 6.09 286.35 6.76Q285.91 7.43 285.51 8.39Q285.11 9.35 284.77 10.47Q284.42 11.59 284.17 12.68Q283.91 13.76 283.76 14.69Q283.61 15.61 283.60 16.17L283.60 16.17Q283.60 16.20 283.61 16.21L283.61 16.21Q283.57 16.23 283.52 16.23Q283.47 16.23 283.43 16.23L283.43 16.23Q282.79 16.23 282.29 16.07Q281.79 15.90 281.64 15.61L281.64 15.61Q281.34 14.43 281.15 13.34Q280.95 12.25 280.82 11.16Q280.69 10.07 280.61 8.95Q280.53 7.84 280.49 6.62L280.49 6.62Q280.22 7.04 279.93 7.72Q279.64 8.40 279.36 9.21Q279.08 10.02 278.82 10.92Q278.56 11.82 278.36 12.67Q278.17 13.52 278.05 14.29Q277.94 15.05 277.94 15.61L277.94 15.61Q277.94 15.90 277.95 16.03Q277.96 16.16 277.98 16.24ZM298.47 10.35L298.47 10.35Q299.52 9.20 300.35 7.91Q301.18 6.62 301.90 5.01L301.90 5.01Q302.26 5.05 302.60 5.21Q302.93 5.36 303.13 5.56L303.13 5.56Q302.36 6.48 301.74 7.24Q301.11 7.99 300.59 8.66Q300.08 9.32 299.64 9.93Q299.19 10.54 298.77 11.16L298.77 11.16Q298.56 11.87 298.38 12.60Q298.20 13.33 298.06 13.99Q297.92 14.66 297.84 15.22Q297.77 15.79 297.77 16.20L297.77 16.20Q297.61 16.20 297.28 16.14Q296.94 16.07 296.59 15.99Q296.24 15.90 295.95 15.82Q295.67 15.74 295.61 15.68L295.61 15.68Q295.83 15.30 296.05 14.75Q296.27 14.20 296.48 13.59Q296.69 12.98 296.88 12.36Q297.08 11.73 297.25 11.20L297.25 11.20Q296.90 10.11 296.57 9.15Q296.24 8.19 295.93 7.41Q295.62 6.64 295.34 6.08Q295.06 5.52 294.81 5.22L294.81 5.22Q294.95 5.17 295.24 5.11Q295.53 5.05 295.87 5.00Q296.21 4.94 296.57 4.91Q296.93 4.87 297.21 4.86L297.21 4.86Q297.21 5.21 297.27 5.71Q297.33 6.22 297.44 6.79Q297.54 7.36 297.68 7.95Q297.82 8.54 297.96 9.03Q298.10 9.52 298.24 9.88Q298.37 10.23 298.47 10.35ZM309.04 16.24L309.04 16.24Q308.36 16.04 308.11 15.85Q307.85 15.65 307.85 15.36L307.85 15.36Q307.85 15.13 307.97 14.73Q308.10 14.32 308.34 13.77Q308.59 13.22 308.93 12.54Q309.27 11.87 309.71 11.10L309.71 11.10Q309.34 11.09 309.06 11.08Q308.77 11.07 308.59 11.07L308.59 11.07Q308.67 10.86 309.06 10.71Q309.46 10.56 310.10 10.44L310.10 10.44Q310.65 9.53 311.27 8.71Q311.89 7.88 312.52 7.19Q313.15 6.50 313.78 5.97Q314.41 5.45 314.99 5.14L314.99 5.14Q315 5.04 315.01 4.97Q315.01 4.90 315.01 4.87L315.01 4.87Q315.21 4.87 315.54 4.97Q315.87 5.07 316.18 5.21Q316.50 5.35 316.74 5.49Q316.99 5.64 317.02 5.74L317.02 5.74Q316.55 6.55 316.11 8.17Q315.66 9.79 315.36 12.04L315.36 12.04Q315.29 12.60 315.25 13.31Q315.20 14.03 315.20 14.91L315.20 14.91Q315.20 15.22 315.20 15.54Q315.20 15.86 315.22 16.21L315.22 16.21Q315.20 16.23 315.17 16.23Q315.14 16.23 315.06 16.23L315.06 16.23Q314.86 16.23 314.60 16.16Q314.34 16.10 314.10 16.01Q313.85 15.92 313.68 15.81Q313.50 15.69 313.46 15.61L313.46 15.61Q313.45 15.43 313.45 15.25Q313.45 15.08 313.45 14.88L313.45 14.88Q313.45 14.01 313.51 13.12Q313.57 12.22 313.73 11.27L313.73 11.27Q313.53 11.26 313.21 11.23Q312.89 11.21 312.49 11.20Q312.09 11.19 311.63 11.16Q311.18 11.14 310.74 11.13L310.74 11.13Q310.41 11.76 310.11 12.38Q309.82 13.01 309.61 13.64L309.61 13.64Q309.37 14.31 309.23 14.98Q309.08 15.65 309.04 16.24ZM314.44 7.83L314.44 7.83Q314.50 7.63 314.57 7.29Q314.65 6.94 314.72 6.57L314.72 6.57Q314.37 6.69 313.94 7.03Q313.52 7.36 313.06 7.86Q312.61 8.36 312.14 8.98Q311.67 9.60 311.23 10.30L311.23 10.30Q312.41 10.21 313.91 10.18L313.91 10.18Q314.02 9.59 314.15 9.01Q314.29 8.43 314.44 7.83Z"></path></g></svg>